<svg width="41" height="48" viewBox="0 0 41 48" fill="none" xmlns="http://www.w3.org/2000/svg">
<path d="M14.7692 0H36.2308C38.8538 0 41 2.16 41 4.8V43.2C41 45.84 38.8538 48 36.2308 48H14.7692C12.1462 48 10 45.84 10 43.2V40.8C10 40.1635 10.2512 39.553 10.6984 39.1029C11.1456 38.6529 11.7522 38.4 12.3846 38.4C13.0171 38.4 13.6236 38.6529 14.0708 39.1029C14.518 39.553 14.7692 40.1635 14.7692 40.8V43.2H36.2308V4.8H14.7692V7.2C14.7692 7.83652 14.518 8.44697 14.0708 8.89706C13.6236 9.34714 13.0171 9.6 12.3846 9.6C11.7522 9.6 11.1456 9.34714 10.6984 8.89706C10.2512 8.44697 10 7.83652 10 7.2V4.8C10 2.16 12.1462 0 14.7692 0Z" fill="black"/>
<path d="M19.0619 34.296C20.0156 35.2347 21.5562 35.2347 22.5099 34.296L31.284 25.66C31.7425 25.2086 32 24.5965 32 23.9583C32 23.3201 31.7425 22.708 31.284 22.2566L22.5099 13.6206C22.0451 13.2071 21.4366 12.9852 20.8102 13.0008C20.1838 13.0163 19.5875 13.2682 19.1444 13.7043C18.7014 14.1403 18.4455 14.7273 18.4297 15.3438C18.4139 15.9603 18.6393 16.5593 19.0595 17.0168L23.647 21.5514H2.4454C1.79684 21.5514 1.17484 21.805 0.716241 22.2564C0.25764 22.7078 0 23.32 0 23.9583C0 24.5967 0.25764 25.2089 0.716241 25.6603C1.17484 26.1116 1.79684 26.3652 2.4454 26.3652H23.647L19.0595 30.8998C18.603 31.3509 18.3469 31.9617 18.3474 32.5984C18.3478 33.2351 18.6048 33.8455 19.0619 34.296Z" fill="black"/>
</svg>
