<svg width="62" height="60" viewBox="0 0 62 60" fill="none" xmlns="http://www.w3.org/2000/svg">
<path d="M21.9841 31.2C21.4732 31.2 20.9737 31.3466 20.5489 31.6213C20.1241 31.896 19.793 32.2865 19.5974 32.7433C19.4019 33.2001 19.3508 33.7028 19.4504 34.1877C19.5501 34.6727 19.7962 35.1181 20.1574 35.4678C20.5187 35.8174 20.979 36.0555 21.4801 36.1519C21.9813 36.2484 22.5007 36.1989 22.9727 36.0097C23.4448 35.8205 23.8482 35.5 24.1321 35.0889C24.416 34.6778 24.5675 34.1944 24.5675 33.7C24.5675 33.0369 24.2953 32.4011 23.8108 31.9322C23.3264 31.4634 22.6693 31.2 21.9841 31.2ZM21.9841 20C21.4732 20 20.9737 20.1466 20.5489 20.4213C20.1241 20.696 19.793 21.0865 19.5974 21.5433C19.4019 22.0001 19.3508 22.5028 19.4504 22.9877C19.5501 23.4727 19.7962 23.9181 20.1574 24.2678C20.5187 24.6174 20.979 24.8555 21.4801 24.9519C21.9813 25.0484 22.5007 24.9989 22.9727 24.8097C23.4448 24.6205 23.8482 24.3 24.1321 23.8889C24.416 23.4778 24.5675 22.9944 24.5675 22.5C24.5675 21.8369 24.2953 21.2011 23.8108 20.7322C23.3264 20.2634 22.6693 20 21.9841 20ZM31 25C30.3148 25 29.6577 25.2634 29.1733 25.7322C28.6888 26.2011 28.4166 26.8369 28.4166 27.5V30C28.4166 30.663 28.6888 31.2989 29.1733 31.7678C29.6577 32.2366 30.3148 32.5 31 32.5C31.6851 32.5 32.3422 32.2366 32.8267 31.7678C33.3111 31.2989 33.5833 30.663 33.5833 30V27.5C33.5833 26.8369 33.3111 26.2011 32.8267 25.7322C32.3422 25.2634 31.6851 25 31 25ZM52.9583 21.425C52.0671 20.9288 51.0828 20.6091 50.0627 20.4846C49.0427 20.3602 48.0072 20.4334 47.0166 20.7C45.9857 20.9672 45.0256 21.4445 44.2008 22.1L14.2341 5.32499C13.8414 5.10557 13.3959 4.99005 12.9425 4.99005C12.489 4.99005 12.0435 5.10557 11.6508 5.32499C11.2518 5.54205 10.9195 5.85783 10.688 6.24C10.4565 6.62216 10.3341 7.057 10.3333 7.49999V40.425C8.80876 40.9226 7.48691 41.876 6.55833 43.1475C5.62976 44.4191 5.14244 45.9431 5.16663 47.5C5.16591 49.4549 5.954 51.3329 7.363 52.7338C8.77201 54.1347 10.6906 54.9479 12.71 55H14.2083C22.6732 54.9807 30.9821 52.7942 38.2915 48.6625C45.6008 44.5308 51.6503 38.6009 55.8258 31.475C56.7901 29.77 57.0329 27.7693 56.5028 25.8945C55.9726 24.0197 54.7112 22.4173 52.9841 21.425H52.9583ZM15.5 11.825L41.0491 26.1C38.2147 30.193 34.4254 33.5837 29.9873 35.9983C25.5491 38.4128 20.5865 39.7836 15.5 40V11.825ZM51.3308 29.025C47.4957 35.5642 41.8949 40.9707 35.1281 44.6655C28.3613 48.3603 20.6834 50.2043 12.9166 50C12.2315 50 11.5744 49.7366 11.0899 49.2678C10.6055 48.7989 10.3333 48.163 10.3333 47.5C10.3313 47.165 10.3988 46.8331 10.532 46.5238C10.6651 46.2146 10.8611 45.9345 11.1083 45.7C11.5936 45.2473 12.2426 44.9961 12.9166 45H14.2341C20.8674 44.9974 27.381 43.2902 33.109 40.053C38.837 36.8157 43.5741 32.1646 46.8358 26.575C46.9926 26.3008 47.2069 26.0613 47.4649 25.8718C47.7229 25.6824 48.019 25.5472 48.3341 25.475C48.9855 25.302 49.681 25.3827 50.2716 25.7C50.8643 26.0083 51.3094 26.5282 51.512 27.1492C51.7146 27.7702 51.6589 28.4432 51.3566 29.025H51.3308Z" fill="black"/>
</svg>
