<svg width="59" height="50" viewBox="0 0 59 50" fill="none" xmlns="http://www.w3.org/2000/svg">
<path d="M27.3934 8.40833V4.16667H21.0735C20.5148 4.16667 19.979 3.94717 19.5839 3.55647C19.1889 3.16577 18.9669 2.63587 18.9669 2.08333C18.9669 1.5308 19.1889 1.0009 19.5839 0.610195C19.979 0.219494 20.5148 0 21.0735 0H37.9264C38.4852 0 39.021 0.219494 39.416 0.610195C39.8111 1.0009 40.0331 1.5308 40.0331 2.08333C40.0331 2.63587 39.8111 3.16577 39.416 3.55647C39.021 3.94717 38.4852 4.16667 37.9264 4.16667H31.6066V8.40833C35.6483 8.69355 39.5872 9.79934 43.1776 11.6567C46.768 13.5141 49.9329 16.0832 52.4748 19.2038C55.0167 22.3244 56.8812 25.9295 57.9518 29.7943C59.0225 33.6591 59.2764 37.7006 58.6977 41.6667H0.302348C-0.276361 37.7006 -0.0224718 33.6591 1.04818 29.7943C2.11883 25.9295 3.98327 22.3244 6.5252 19.2038C9.06712 16.0832 12.232 13.5141 15.8224 11.6567C19.4128 9.79934 23.3517 8.69355 27.3934 8.40833ZM4.22065 37.5H54.7794C54.7794 34.217 54.1255 30.9661 52.8551 27.9329C51.5847 24.8998 49.7226 22.1438 47.3752 19.8223C45.0278 17.5009 42.241 15.6594 39.174 14.403C36.107 13.1466 32.8197 12.5 29.5 12.5C26.1803 12.5 22.893 13.1466 19.826 14.403C16.759 15.6594 13.9722 17.5009 11.6248 19.8223C9.27739 22.1438 7.41533 24.8998 6.14492 27.9329C4.87452 30.9661 4.22065 34.217 4.22065 37.5ZM2.11403 45.8333H56.886C57.4447 45.8333 57.9805 46.0528 58.3756 46.4435C58.7706 46.8342 58.9926 47.3641 58.9926 47.9167C58.9926 48.4692 58.7706 48.9991 58.3756 49.3898C57.9805 49.7805 57.4447 50 56.886 50H2.11403C1.55533 50 1.0195 49.7805 0.624434 49.3898C0.229368 48.9991 0.00742181 48.4692 0.00742181 47.9167C0.00742181 47.3641 0.229368 46.8342 0.624434 46.4435C1.0195 46.0528 1.55533 45.8333 2.11403 45.8333Z" fill="black"/>
</svg>
