<svg width="208" height="98" viewBox="0 0 208 98" fill="none" xmlns="http://www.w3.org/2000/svg">
<path d="M50.512 36.896C51.2373 36.896 51.6 37.8773 51.6 39.84C51.6 40.9067 51.152 42.208 50.256 43.744C49.36 45.2373 48.1867 46.624 46.736 47.904C45.328 49.1413 43.7493 50.1653 42 50.976C40.2507 51.7867 38.544 52.192 36.88 52.192C34.3627 52.192 32.6133 51.5733 31.632 50.336C30.6933 49.056 30.224 47.2 30.224 44.768C30.224 42.2933 31.184 38.0693 33.104 32.096C27.216 31.84 22.928 31.712 20.24 31.712H19.344C18.576 36.448 18.192 41.4187 18.192 46.624C18.192 48.928 17.3173 50.5067 15.568 51.36C14.7573 51.744 13.968 52.1067 13.2 52.448C12.4747 52.7893 11.6853 52.96 10.832 52.96C8.69867 52.96 7.632 51.04 7.632 47.2C7.632 43.36 8.50667 38.432 10.256 32.416C8.37867 32.6293 6.71467 32.8427 5.264 33.056C3.856 33.2693 2.74667 33.376 1.936 33.376C1.12533 33.376 0.72 33.1627 0.72 32.736C0.72 31.456 1.76533 30.1547 3.856 28.832C5.98933 27.5093 8.86933 26.5067 12.496 25.824C16.5067 15.6267 21.4133 8.82133 27.216 5.408C29.3493 4.128 31.6107 3.488 34 3.488C38.2667 3.53067 41.3387 4.68266 43.216 6.944C45.136 9.20533 46.096 12.2133 46.096 15.968C46.1387 19.68 45.008 24.5227 42.704 30.496C41.8507 32.8 41.0613 34.8907 40.336 36.768C39.6107 38.6453 39.248 40.16 39.248 41.312C39.248 42.464 39.3333 43.3387 39.504 43.936C39.6747 44.5333 40.08 44.832 40.72 44.832C41.872 44.832 44.5813 42.6133 48.848 38.176C49.616 37.3227 50.1707 36.896 50.512 36.896ZM36.88 17.824C36.88 14.112 35.4933 12.256 32.72 12.256C29.904 12.256 27.472 13.4507 25.424 15.84C23.4187 18.1867 21.8613 21.344 20.752 25.312L35.28 25.504C36.3467 22.0907 36.88 19.5307 36.88 17.824ZM57.764 41.248L58.148 49.056C58.148 50.08 57.6147 50.9973 56.548 51.808C55.4813 52.6187 54.0307 53.024 52.196 53.024C51.1293 53.024 50.3827 52.4693 49.956 51.36C49.572 50.2507 49.38 48.6293 49.38 46.496C49.38 42.016 49.5933 38.5173 50.02 36C50.4893 33.44 51.3853 30.8587 52.708 28.256C50.7453 26.3787 49.764 24.7573 49.764 23.392C49.764 20.5333 51.3 19.104 54.372 19.104C55.9507 19.104 57.3373 19.936 58.532 21.6C59.3853 22.752 60.004 24.096 60.388 25.632C60.9853 25.8453 61.732 25.952 62.628 25.952C63.8653 25.952 65.2947 25.5467 66.916 24.736L68.58 23.904C69.092 23.648 69.54 23.52 69.924 23.52C71.1613 23.52 72.3987 25.3333 73.636 28.96C73.252 30.624 72.8253 32.224 72.356 33.76C71.9293 35.296 71.4173 37.152 70.82 39.328C70.2227 41.504 69.9027 42.976 69.86 43.744C69.86 44.4693 70.0947 44.832 70.564 44.832C71.204 44.832 71.9933 44.4267 72.932 43.616C73.8707 42.8053 74.8093 41.9307 75.748 40.992C76.6867 40.0107 77.54 39.1147 78.308 38.304C79.1187 37.4933 79.6733 37.088 79.972 37.088C80.5693 37.088 80.868 37.8133 80.868 39.264C80.868 42.208 79.5667 45.1093 76.964 47.968C74.404 50.8267 71.46 52.2347 68.132 52.192C66.1693 52.192 64.6973 51.4027 63.716 49.824C62.7347 48.2453 62.2227 46.3253 62.18 44.064C62.18 39.584 63.1827 35.3387 65.188 31.328C64.2493 31.712 63.1827 31.904 61.988 31.904C60.836 31.904 60.004 31.8613 59.492 31.776C59.108 33.3973 58.724 35.04 58.34 36.704C57.956 38.3253 57.764 39.84 57.764 41.248ZM103.526 46.56C100.155 50.528 96.102 52.512 91.366 52.512C86.6727 52.512 83.1527 51.3173 80.806 48.928C78.4593 46.496 77.3073 43.488 77.35 39.904C77.3073 34.8267 78.9073 30.4533 82.15 26.784C85.3927 23.1147 89.638 21.28 94.886 21.28C97.2753 21.28 99.1953 21.5787 100.646 22.176C103.163 23.2 104.422 24.16 104.422 25.056C104.422 25.7387 102.651 26.1013 99.11 26.144C95.6113 26.144 92.6673 27.36 90.278 29.792C87.9313 32.1813 86.758 35.2107 86.758 38.88C86.758 40.8 87.3127 42.4213 88.422 43.744C89.574 45.024 91.174 45.664 93.222 45.664C95.3127 45.664 97.0407 45.2373 98.406 44.384C95.3767 42.336 93.862 39.3707 93.862 35.488C93.8193 33.44 94.5447 31.584 96.038 29.92C97.574 28.2133 99.5153 27.36 101.862 27.36C104.251 27.3173 105.958 27.9573 106.982 29.28C108.006 30.6027 108.518 32.3093 108.518 34.4C108.518 36.448 108.027 38.624 107.046 40.928H107.43C109.307 40.8853 110.929 40.224 112.294 38.944C112.806 38.432 113.233 37.984 113.574 37.6C113.958 37.216 114.342 37.024 114.726 37.024C115.323 37.024 115.622 37.728 115.622 39.136C115.622 41.7387 114.854 43.7013 113.318 45.024C111.782 46.304 110.075 46.944 108.198 46.944C106.363 46.944 104.806 46.816 103.526 46.56ZM102.95 39.136C103.675 37.6 104.038 36.1067 104.038 34.656C104.038 33.2053 103.569 32.48 102.63 32.48C102.246 32.48 101.926 32.7573 101.67 33.312C101.414 33.8667 101.286 34.4 101.286 34.912C101.286 36.6187 101.841 38.0267 102.95 39.136ZM147.492 32.544C147.492 31.136 146.681 30.432 145.06 30.432C143.951 30.432 142.713 31.52 141.348 33.696C139.983 35.8293 139.001 38.1333 138.404 40.608V40.736C138.404 42.1867 138.617 43.68 139.044 45.216C139.513 46.752 139.748 47.8187 139.748 48.416C139.748 49.8667 137.935 51.296 134.308 52.704C133.753 52.9173 133.263 53.024 132.836 53.024C131.769 53.024 131.023 52.4693 130.596 51.36C130.212 50.2507 130.02 48.7573 130.02 46.88C130.02 44.96 130.063 43.168 130.148 41.504C130.276 39.7973 130.383 38.24 130.468 36.832C130.596 35.3813 130.703 34.1227 130.788 33.056C130.916 31.9467 130.98 31.0507 130.98 30.368C130.98 28.9173 130.319 28.192 128.996 28.192C127.673 28.192 126.137 29.7493 124.388 32.864C122.639 35.936 121.764 38.3893 121.764 40.224C121.764 42.016 121.977 43.68 122.404 45.216C122.873 46.752 123.108 47.8187 123.108 48.416C123.108 49.8667 121.295 51.296 117.668 52.704C117.113 52.9173 116.623 53.024 116.196 53.024C115.129 53.024 114.383 52.4693 113.956 51.36C113.572 50.2507 113.38 48.544 113.38 46.24C113.38 40.1813 113.615 35.808 114.084 33.12C114.724 29.152 116.175 25.3973 118.436 21.856C119.204 20.6613 120.036 20.064 120.932 20.064C122.34 20.064 123.641 21.216 124.836 23.52C125.177 24.1173 125.433 24.672 125.604 25.184C127.652 22.624 130.063 21.344 132.836 21.344C134.671 21.344 136.313 21.9627 137.764 23.2C139.215 24.3947 139.94 25.9093 139.94 27.744V28.448C142.543 25.2053 145.721 23.584 149.476 23.584C151.78 23.584 153.529 24.1813 154.724 25.376C155.919 26.5707 156.516 28.0427 156.516 29.792C156.516 31.5413 156.388 33.12 156.132 34.528C155.876 35.936 155.577 37.2587 155.236 38.496C154.937 39.7333 154.66 40.8427 154.404 41.824C154.148 42.7627 154.02 43.5093 154.02 44.064C154.02 44.576 154.191 44.832 154.532 44.832C155.172 44.832 155.961 44.4267 156.9 43.616C157.839 42.8053 158.777 41.9307 159.716 40.992C160.655 40.0107 161.508 39.1147 162.276 38.304C163.087 37.4933 163.641 37.088 163.94 37.088C164.537 37.088 164.836 37.8133 164.836 39.264C164.836 42.2507 163.321 45.152 160.292 47.968C157.305 50.784 154.105 52.192 150.692 52.192C147.62 52.192 146.084 49.3973 146.084 43.808C146.084 42.4 146.319 40.4587 146.788 37.984C147.257 35.5093 147.492 33.696 147.492 32.544ZM200.904 36.896C201.672 36.896 202.056 37.8773 202.056 39.84C202.056 40.9067 201.608 42.208 200.712 43.744C199.816 45.2373 198.642 46.624 197.192 47.904C195.784 49.1413 194.205 50.1653 192.456 50.976C190.706 51.7867 189 52.192 187.336 52.192C185.074 52.192 183.56 50.208 182.792 46.24C181.682 48.0747 180.232 49.5893 178.44 50.784C176.648 51.936 174.237 52.512 171.208 52.512C168.221 52.512 165.81 51.5733 163.976 49.696C162.141 47.8187 161.245 45.536 161.288 42.848C161.288 35.5947 163.698 29.8773 168.52 25.696C170.568 23.9467 172.466 22.7947 174.216 22.24C176.008 21.6853 177.885 21.408 179.848 21.408C181.81 21.408 183.41 21.7493 184.648 22.432C185.245 21.1947 185.928 20.576 186.696 20.576C188.189 20.576 189.597 21.2373 190.92 22.56C192.285 23.84 192.968 25.056 192.968 26.208C192.37 27.616 191.496 29.3013 190.344 31.264C190.002 33.2267 189.832 35.9787 189.832 39.52C189.832 43.0613 190.28 44.832 191.176 44.832C192.285 44.832 194.973 42.6133 199.24 38.176C200.008 37.3227 200.562 36.896 200.904 36.896ZM170.696 40.736C170.696 44.0213 171.912 45.664 174.344 45.664C176.946 45.6213 179.101 44.2347 180.808 41.504C181.405 40.5653 181.896 39.4133 182.28 38.048C182.28 33.2693 182.706 29.1733 183.56 25.76C180.104 26.4427 177.096 28.1067 174.536 30.752C171.976 33.3973 170.696 36.7253 170.696 40.736Z" fill="#032816"/>
<path d="M45.96 85.16C40.9733 85.16 37.28 83.7467 34.88 80.92C34.0267 79.9067 33.3333 78.56 32.8 76.88C32.2667 75.2 32 73.16 32 70.76C32 68.36 32.3867 66.2133 33.16 64.32C33.96 62.4 35.04 60.92 36.4 59.88C39.04 57.9333 42.2267 56.96 45.96 56.96C47.16 56.96 48.3333 57.0533 49.48 57.24C50.6267 57.4 51.48 57.5733 52.04 57.76L52.88 58.04L52.76 58.44C50.68 57.72 48.4133 57.36 45.96 57.36C43.1333 57.36 40.7733 58.28 38.88 60.12C37.44 61.48 36.4267 63.48 35.84 66.12C35.4933 67.6133 35.32 69.44 35.32 71.6C35.32 73.76 35.6267 75.76 36.24 77.6C36.8533 79.4133 37.5467 80.76 38.32 81.64C39.12 82.52 40.08 83.2267 41.2 83.76C42.32 84.2667 43.2133 84.56 43.88 84.64C44.5467 84.72 45.3333 84.76 46.24 84.76C47.1733 84.76 48.4133 84.6533 49.96 84.44V76.2H45.12V75.8H55V76.2H53.28V84.08C51.2533 84.8 48.8133 85.16 45.96 85.16ZM67.0566 85.16C64.2566 85.16 61.9766 84.36 60.2166 82.76C58.4566 81.16 57.5766 78.6933 57.5766 75.36C57.5766 72.0267 58.4832 69.44 60.2966 67.6C62.1366 65.76 64.4566 64.84 67.2566 64.84C70.0832 64.84 72.3766 65.64 74.1366 67.24C75.8966 68.84 76.7766 71.3067 76.7766 74.64C76.7766 77.9733 75.8566 80.56 74.0166 82.4C72.2032 84.24 69.8832 85.16 67.0566 85.16ZM67.3366 65.16C65.3099 65.16 63.6299 66.0667 62.2966 67.88C60.9632 69.6667 60.2966 72.1733 60.2966 75.4C60.2966 78.6 60.9099 80.9733 62.1366 82.52C63.3632 84.0667 64.9899 84.84 67.0166 84.84C69.0432 84.84 70.7232 83.9467 72.0566 82.16C73.3899 80.3467 74.0566 77.84 74.0566 74.64C74.0566 71.4133 73.4432 69.0267 72.2166 67.48C70.9899 65.9333 69.3632 65.16 67.3366 65.16ZM82.7594 80.4C82.7594 82.5067 83.3194 83.8533 84.4394 84.44C84.9727 84.7067 85.6527 84.84 86.4794 84.84C88.1594 84.84 89.6527 84.2 90.9594 82.92C92.2927 81.64 93.0127 80.4533 93.1194 79.36V65H95.9194V82.16C95.9194 82.9333 96.066 83.5333 96.3594 83.96C96.6794 84.36 96.9994 84.5733 97.3194 84.6L97.7594 84.68H98.9994V85H96.5594C95.466 85 94.626 84.76 94.0394 84.28C93.4794 83.8 93.186 83.32 93.1594 82.84L93.1194 82.16V80.44C92.6394 81.5867 91.786 82.6667 90.5594 83.68C89.3327 84.6667 87.986 85.16 86.5194 85.16C85.0794 85.16 83.8927 85.0267 82.9594 84.76C82.0527 84.4667 81.3994 84.0667 80.9994 83.56C80.306 82.7333 79.9594 81.6667 79.9594 80.36V65H82.7594V80.4ZM108.654 66.72V65.88C107.454 66.36 106.361 67.3333 105.374 68.8C104.387 70.24 103.867 71.6 103.814 72.88V85H101.014V65H103.814V71.36C104.241 69.8133 105.054 68.36 106.254 67C107.454 65.6133 108.814 64.8933 110.334 64.84H110.494C111.027 64.84 111.467 65.0267 111.814 65.4C112.187 65.7467 112.374 66.1867 112.374 66.72C112.374 67.2533 112.187 67.6933 111.814 68.04C111.467 68.3867 111.027 68.56 110.494 68.56C109.961 68.56 109.521 68.3867 109.174 68.04C108.827 67.6933 108.654 67.2533 108.654 66.72ZM139.509 69.6C139.509 67.9733 139.296 66.8267 138.869 66.16C138.442 65.4933 137.629 65.16 136.429 65.16C134.829 65.16 133.402 65.8267 132.149 67.16C130.922 68.4933 130.309 69.6933 130.309 70.76V85H127.509V69.6C127.509 67.9733 127.296 66.8267 126.869 66.16C126.442 65.4933 125.536 65.16 124.149 65.16C122.762 65.16 121.442 65.8 120.189 67.08C118.962 68.36 118.296 69.5467 118.189 70.64V85H115.389V65H118.189V69.52C118.616 68.3733 119.402 67.3067 120.549 66.32C121.696 65.3333 122.976 64.84 124.389 64.84C125.802 64.84 126.922 64.9733 127.749 65.24C128.602 65.48 129.202 65.8667 129.549 66.4C129.896 66.9333 130.109 67.4 130.189 67.8C130.269 68.2 130.309 68.76 130.309 69.48C130.736 68.3333 131.509 67.28 132.629 66.32C133.749 65.3333 134.949 64.84 136.229 64.84C137.509 64.84 138.536 64.9467 139.309 65.16C140.082 65.3733 140.656 65.6133 141.029 65.88C141.429 66.1467 141.722 66.5333 141.909 67.04C142.122 67.5467 142.242 67.96 142.269 68.28C142.296 68.6 142.309 69.0533 142.309 69.64V82.16C142.309 82.9333 142.456 83.5333 142.749 83.96C143.069 84.36 143.389 84.5733 143.709 84.6L144.149 84.68H145.389V85H142.949C141.856 85 141.016 84.76 140.429 84.28C139.869 83.8 139.576 83.32 139.549 82.84L139.509 82.16V69.6ZM149.32 75.24C149.32 78.5467 149.893 80.9733 151.04 82.52C152.213 84.0667 153.747 84.84 155.64 84.84C158.307 84.84 160.68 84.44 162.76 83.64L162.88 83.92C160.747 84.7467 158.333 85.16 155.64 85.16C152.973 85.16 150.8 84.36 149.12 82.76C147.44 81.16 146.6 78.6933 146.6 75.36C146.6 72.0267 147.48 69.44 149.24 67.6C151 65.76 153.24 64.84 155.96 64.84C158.147 64.84 159.987 65.4933 161.48 66.8C162.973 68.1067 163.72 70.04 163.72 72.6C163.72 72.7333 163.72 72.8667 163.72 73H149.44C149.36 73.72 149.32 74.4667 149.32 75.24ZM161 72.68C160.973 70.12 160.48 68.2267 159.52 67C158.56 65.7733 157.32 65.16 155.8 65.16C154.28 65.16 152.92 65.8267 151.72 67.16C150.547 68.4933 149.8 70.3333 149.48 72.68H161ZM166.361 65.32V65H167.201V61H170.001V65H176.121V65.32H170.001V79.88C170.001 81.6133 170.188 82.8667 170.561 83.64C170.961 84.4133 171.774 84.8 173.001 84.8C174.254 84.8 175.521 84.5467 176.801 84.04L176.921 84.36C175.588 84.8667 174.054 85.12 172.321 85.12C170.614 85.12 169.334 84.7733 168.481 84.08C167.628 83.36 167.201 81.9467 167.201 79.84V65.32H166.361Z" fill="black"/>
</svg>
