<svg width="30" height="30" viewBox="0 0 30 30" fill="none" xmlns="http://www.w3.org/2000/svg">
<path d="M29.3679 26.3371C29.7704 26.7395 29.9964 27.2853 29.9964 27.8543C29.9964 28.4234 29.7704 28.9692 29.3679 29.3715C28.9655 29.7739 28.4197 30 27.8506 30C27.2815 30 26.7358 29.7739 26.3333 29.3715L15 18.0353L3.66309 29.368C3.26067 29.7704 2.71489 29.9964 2.14579 29.9964C1.57669 29.9964 1.0309 29.7704 0.628487 29.368C0.226074 28.9656 5.99642e-09 28.4198 0 27.8508C-5.99642e-09 27.2817 0.226074 26.736 0.628487 26.3336L11.9654 15.0009L0.632056 3.66465C0.229643 3.26226 0.00357019 2.71651 0.0035702 2.14744C0.00357021 1.57838 0.229643 1.03262 0.632056 0.630234C1.03447 0.227845 1.58026 0.00178466 2.14936 0.00178465C2.71845 0.00178465 3.26424 0.227845 3.66666 0.630234L15 11.9665L26.3369 0.628449C26.7393 0.22606 27.2851 -9.48061e-09 27.8542 0C28.4233 9.48061e-09 28.9691 0.226059 29.3715 0.628449C29.7739 1.03084 30 1.57659 30 2.14566C30 2.71472 29.7739 3.26048 29.3715 3.66287L18.0346 15.0009L29.3679 26.3371Z" fill="#F24E1E"/>
</svg>
